<?xml version="1.0" encoding="utf-8"?>
<!-- Generator: Adobe Illustrator 28.0.0, SVG Export Plug-In . SVG Version: 6.00 Build 0)  -->
<svg version="1.1"
	 id="svg5" xmlns:sodipodi="http://sodipodi.sourceforge.net/DTD/sodipodi-0.dtd" xmlns:inkscape="http://www.inkscape.org/namespaces/inkscape" xmlns:svg="http://www.w3.org/2000/svg"
	 xmlns="http://www.w3.org/2000/svg" xmlns:xlink="http://www.w3.org/1999/xlink" x="0px" y="0px" viewBox="0 0 523 366.8"
	 style="enable-background:new 0 0 523 366.8;" xml:space="preserve">
<style type="text/css">
	.st0{opacity:0.7778;enable-background:new    ;}
	.st1{fill:#FFFFFF;}
	.st2{fill:#35AEC6;}
	.st3{fill:#8DD2E0;fill-opacity:0.9961;}
	.st4{fill:#D9F0F5;fill-opacity:0.9961;}
	.st5{fill:#214478;fill-opacity:0.9948;}
	.st6{fill:#D9F0F5;}
	.st7{fill:#204478;}
</style>
<sodipodi:namedview  bordercolor="#000000" borderopacity="0.25" id="namedview7" inkscape:deskcolor="#d1d1d1" inkscape:document-units="mm" inkscape:pagecheckerboard="0" inkscape:pageopacity="0.0" inkscape:showpageshadow="2" pagecolor="#ffffff" showgrid="false">
	</sodipodi:namedview>
<g id="layer1" inkscape:groupmode="layer" inkscape:label="Layer 1">
	
		<path id="path26520" inkscape:href="#path788" inkscape:original="M 126.1582 97.175781 A 272.40139 272.40139 0 0 0 41.527344 104.0957 L 34.15625 105.88477 A 10.129533 10.129533 0 0 0 26.552734 117.37891 L 35.787109 173.30273 A 14.92518 14.92518 0 0 0 46.347656 185.20312 L 96.998047 199.91992 A 32.358043 32.358043 0 0 0 115.05664 199.91992 L 165.70508 185.20312 A 14.925183 14.925183 0 0 0 176.26758 173.30273 L 185.50195 117.37891 A 10.062187 10.062187 0 0 0 177.88281 105.94531 L 168.24609 103.67383 A 272.40139 272.40139 0 0 0 126.1582 97.175781 z " inkscape:radius="2.8344164" sodipodi:type="inkscape:offset" class="st0" d="
		M256.1,27.5c-61,0.2-122.1,7.6-181.4,22l-20.9,5.1c-8.9,2.2-16.9,7.8-22,15.4c-5.1,7.6-7.1,17.2-5.6,26.3l26.2,158.5
		c3.1,18.6,17.5,34.9,35.6,40.1l143.6,41.7c18.1,5.2,37.6,5.2,55.7,0l143.6-41.7c18.1-5.3,32.6-21.5,35.6-40.1c0,0,0,0,0,0
		l26.2-158.5v0c1.5-9-0.6-18.6-5.6-26.2c-5.1-7.6-13.1-13.2-22-15.3l-27.3-6.4c-39.6-9.3-80-15.6-120.5-18.6
		C296.8,28.1,276.5,27.4,256.1,27.5L256.1,27.5z"/>
	
		<path id="path23857" inkscape:href="#path788" inkscape:original="M 126.1582 97.175781 A 272.40139 272.40139 0 0 0 41.527344 104.0957 L 34.15625 105.88477 A 10.129533 10.129533 0 0 0 26.552734 117.37891 L 35.787109 173.30273 A 14.92518 14.92518 0 0 0 46.347656 185.20312 L 96.998047 199.91992 A 32.358043 32.358043 0 0 0 115.05664 199.91992 L 165.70508 185.20312 A 14.925183 14.925183 0 0 0 176.26758 173.30273 L 185.50195 117.37891 A 10.062187 10.062187 0 0 0 177.88281 105.94531 L 168.24609 103.67383 A 272.40139 272.40139 0 0 0 126.1582 97.175781 z " inkscape:radius="2.8344164" sodipodi:type="inkscape:offset" class="st1" d="
		M256.1,27.5c-61,0.2-122.1,7.6-181.4,22l-20.9,5.1c-8.9,2.2-16.9,7.8-22,15.4c-5.1,7.6-7.1,17.2-5.6,26.3l26.2,158.5
		c3.1,18.6,17.5,34.9,35.6,40.1l143.6,41.7c18.1,5.2,37.6,5.2,55.7,0l143.6-41.7c18.1-5.3,32.6-21.5,35.6-40.1c0,0,0,0,0,0
		l26.2-158.5v0c1.5-9-0.6-18.6-5.6-26.2c-5.1-7.6-13.1-13.2-22-15.3l-27.3-6.4c-39.6-9.3-80-15.6-120.5-18.6
		C296.8,28.1,276.5,27.4,256.1,27.5L256.1,27.5z"/>
	
		<path id="path788" inkscape:transform-center-x="1.0581136e-06" inkscape:transform-center-y="-1.8610792e-06" sodipodi:nodetypes="ccccccc" class="st2" d="
		M435.8,56.1l27.3,6.4c14.6,3.4,24,17.6,21.6,32.4l-26.2,158.5c-2.7,16.1-14.3,29.2-29.9,33.7L285,328.9c-16.7,4.9-34.5,4.9-51.2,0
		L90.3,287.2c-15.6-4.5-27.3-17.7-29.9-33.7L34.1,94.9c-2.4-14.8,7-29,21.6-32.6l20.9-5.1C194.6,28.6,317.6,28.2,435.8,56.1
		L435.8,56.1z"/>
	<path id="path20393" class="st3" d="M270.1,35.6c-43.4-0.6-86.7,2.5-129.5,9.1c-14.9,11.9-27.8,26.1-38.2,42.1
		c-41.2,63.7-37.7,146.4,8.6,206.4l122.8,35.7c16.7,4.9,34.5,4.9,51.2,0l104.5-30.4c3.8-4.5,7.4-9.2,10.7-14.1l4.2-6.6
		c48.1-77.9,29.6-179.5-42.9-235.4C331.3,38.4,300.7,36.1,270.1,35.6z"/>
	
		<path id="path17211" sodipodi:arc-type="arc" sodipodi:cx="103.54654" sodipodi:cy="148.80684" sodipodi:end="0.55312269" sodipodi:open="true" sodipodi:rx="40.744736" sodipodi:ry="40.744736" sodipodi:start="0.5968137" sodipodi:type="arc" class="st4" d="
		M347.9,248.9c-35.6,52.4-106.7,66.3-159.4,31.3c-52.7-35-67.5-105.9-33.1-159s105.2-68.6,158.7-34.8s69.8,104.4,36.5,158.3"/>
	
		<path id="path16379" sodipodi:arc-type="arc" sodipodi:cx="103.54654" sodipodi:cy="148.80684" sodipodi:end="0.55312269" sodipodi:open="true" sodipodi:rx="19.840914" sodipodi:ry="19.840914" sodipodi:start="0.5968137" sodipodi:type="arc" class="st1" d="
		M298.9,215.6c-17.3,25.5-51.9,32.3-77.6,15.3s-32.9-51.6-16.1-77.4s51.2-33.4,77.3-16.9c26,16.5,34,50.9,17.8,77.1"/>
	<path id="rect5406" class="st5" d="M218.5,126.3c-3.4,0-6.7,1.4-9.3,4.3l-58.9,65.3l8.3,18.3L147,199.5l-27-29.9
		c-5.2-5.7-13.5-5.7-18.7,0L55,221.1l5.3,32.4c2.7,16.1,14.3,29.2,29.9,33.7l143.6,41.7c16.7,4.9,34.5,4.9,51.2,0l143.6-41.7
		c15.6-4.5,27.3-17.7,29.9-33.7l13.8-83.5l-31.1-34.4c-5.2-5.7-13.5-5.7-18.7,0l-71.5,79.3l8.3,18.3l-11.6-14.6l-13.2-14.7
		c-5.2-5.7-13.5-5.7-18.7,0l-7.9,8.8l7.8,17.1L304.9,216l0,0l-77-85.4C225.3,127.7,221.9,126.3,218.5,126.3L218.5,126.3z"/>
	<path id="path13735" class="st6" d="M319.7,227.9c-75,6.4-112.6,12.6-127.3,18.8c-21.2,9,5.5,18,35.3,28.3
		c34.6,11.9,74.2,25.8,48.5,45c-5.1,3.8-12.8,7.8-23.6,12.1c10.9,0.8,22-0.3,32.5-3.3l77.9-22.6c0.6-0.5,1.1-1,1.6-1.5
		c15.5-16.1-26.6-28.1-64.3-38.6c-32.9-9.2-62.9-17.3-46.6-25.6C261.8,236.4,282.2,232.2,319.7,227.9L319.7,227.9z"/>
	<path id="rect13794" class="st7" d="M303.5,268.5l-13.3,22.4h3.9l-9.8,17.5h5.7l-11.7,22.1c2.3-0.5,4.5-1,6.8-1.6l37.1-10.8
		l-5.1-9.7h5.7l-9.8-17.5h3.9L303.5,268.5z"/>
</g>
</svg>
